With: Ryan Gosling, Carey Mulligan en Bryan Cranston

In Drive staat een Hollywood-stuntrijder centraal, een eenzaat van nature, die er een bijverdienste als bestuurder van de vluchtwagen in de criminele onderwereld op nahoudt. Hij haalt zich de woede op de hals van een van L.A.’s gevaarlijkste mannen nadat hij het ex-criminele vriendje van z’n mooie buurvrouw helpt bij een klus die helemaal fout afloopt. De enige manier om haar te beschermen en in leven te blijven is doen wat hij het beste kan: rijden.

A Hollywood stunt performer who moonlights as a wheelman discovers that a contract has been put on him after a heist gone wrong. 

------------------------ Dutch Friends ------------------------
---------------------------------------------------------------
- Bezoek ook eens mijn vrienden op:  http://www.Film-Test.nl --
----- voor mijn Nederlandse Sync. ondertitels ---- en meer ----
------- http://www.Film-Test.nl ---- voor Films en meer -------
---------------------------------------------------------------

General:

Complete name                    : Drive\Drive.avi
Format                           : AVI
Format/Info                      : Audio Video Interleave
File size                        : 1.28 GiB
Duration                         : 1h 40mn
Overall bit rate                 : 1 815 Kbps

Video:

Format                           : MPEG-4 Visual
Format profile                   : Simple@L3
Format settings, BVOP            : No
Format settings, QPel            : No
Format settings, GMC             : No warppoints
Format settings, Matrix          : Default (H.263)
Codec ID                         : XVID
Codec ID/Hint                    : XviD
Duration                         : 1h 40mn
Bit rate                         : 1 356 Kbps
Width                            : 720 pixels
Height                           : 304 pixels
Display aspect ratio             : 2.35:1
Frame rate                       : 23.976 fps
Color space                      : YUV
Chroma subsampling               : 4:2:0
Bit depth                        : 8 bits
Scan type                        : Progressive
Compression mode                 : Lossy
Bits/(Pixel*Frame)               : 0.258
Stream size                      : 978 MiB (75%)
Writing library                  : XviD 1.1.2 (UTC 2006-11-01)

Audio:

Format                           : AC-3
Format/Info                      : Audio Coding 3
Mode extension                   : CM (complete main)
Codec ID                         : 2000
Duration                         : 1h 40mn
Bit rate mode                    : Constant
Bit rate                         : 448 Kbps
Channel(s)                       : 6 channels
Channel positions                : Front: L C R, Side: L R, LFE
Sampling rate                    : 48.0 KHz
Bit depth                        : 16 bits
Compression mode                 : Lossy
Stream size                      : 323 MiB (25%)
Alignment                        : Aligned on interleaves
Interleave, duration             : 32 ms (0.77 video frame)


